<svg width="51" height="48" viewBox="0 0 51 48" fill="none" xmlns="http://www.w3.org/2000/svg">
<path d="M50.4217 38.1667C49.9576 32.5917 48.4426 27.1549 45.9567 22.1433C43.5752 17.6146 40.144 13.7219 35.95 10.7908L39.75 2.415C39.8725 2.16468 39.9268 1.88645 39.9073 1.60844C39.8879 1.33043 39.7954 1.06248 39.6392 0.831665C39.4951 0.629184 39.3053 0.463476 39.0852 0.347947C38.8652 0.232419 38.621 0.170317 38.3725 0.166665H12.5167C12.2505 0.166006 11.9885 0.23246 11.7548 0.359884C11.5211 0.487307 11.3233 0.671589 11.1797 0.895693C11.036 1.1198 10.9513 1.37649 10.9331 1.64204C10.915 1.9076 10.964 2.17344 11.0758 2.415L14.955 10.8225C10.7916 13.7563 7.3838 17.6362 5.01167 22.1433C1.60751 28.4767 0.546674 36.2192 0.261674 41.5867C0.215007 42.3724 0.3316 43.1594 0.604104 43.8979C0.876608 44.6363 1.29912 45.3104 1.84501 45.8775C2.41874 46.4348 3.09809 46.8717 3.84311 47.1626C4.58813 47.4536 5.3838 47.5926 6.18334 47.5717H16V44.5H6.05667C5.69834 44.4989 5.34393 44.4254 5.01471 44.2839C4.6855 44.1424 4.38826 43.9359 4.14084 43.6767C3.89306 43.4195 3.70169 43.1135 3.579 42.7781C3.45631 42.4428 3.405 42.0855 3.42834 41.7292C3.65001 37.5967 4.52084 29.7275 7.79834 23.6C10.1088 19.2096 13.5253 15.4983 17.71 12.8333H19.2933C18.2204 14.3176 17.2319 15.8612 16.3325 17.4567C15.4165 19.1544 14.6382 20.9228 14.005 22.745L16.1742 24.2017C16.815 22.3112 17.6039 20.4741 18.5333 18.7075C19.6747 16.6534 20.9715 14.6896 22.4125 12.8333H23.9958C25.058 15.372 25.8077 18.0304 26.2283 20.75C26.5723 22.7689 26.7418 24.8137 26.735 26.8617L29.2367 25.1042C29.1669 23.5118 28.9977 21.9254 28.73 20.3542C28.3052 17.7863 27.6263 15.267 26.7033 12.8333H27.9383L29.3792 9.66666H17.9158L14.9867 3.33333H35.9025L31.9442 11.9942C32.6227 12.3576 33.2736 12.7704 33.8917 13.2292C37.7711 15.9056 40.9527 19.4727 43.17 23.6317C45.3909 28.192 46.7695 33.1161 47.2392 38.1667H50.4217Z" fill="#0EA06C"/>
</svg>
